<svg xmlns="http://www.w3.org/2000/svg" version="1.1" xmlns:xlink="http://www.w3.org/1999/xlink" xmlns:svgjs="http://svgjs.dev/svgjs" width="1440" height="560" preserveAspectRatio="none" viewBox="0 0 1440 560"><g mask="url(&quot;#SvgjsMask1080&quot;)" fill="none"><path d="M426.278,375.065C475.329,378.984,527.055,358.678,550.397,315.36C572.889,273.619,554.057,224.647,529.032,184.374C505.719,146.856,470.374,118.183,426.278,115.616C377.245,112.762,322.977,127.409,300.48,171.07C279.075,212.613,307.803,258.161,332.333,297.939C355.126,334.901,382.991,371.607,426.278,375.065" fill="rgba(121, 0, 15, 0.23)" class="triangle-float2"></path><path d="M1115.705,461.367C1139.563,463.219,1166.938,460.746,1179.264,440.234C1191.815,419.347,1181.381,393.755,1168.914,372.818C1156.82,352.508,1139.318,334.573,1115.705,333.494C1090.349,332.335,1064.599,344.784,1053.346,367.535C1042.973,388.506,1054.261,412.051,1067.211,431.536C1078.47,448.477,1095.425,459.793,1115.705,461.367" fill="rgba(121, 0, 15, 0.23)" class="triangle-float1"></path><path d="M896.59 403 a96.64 96.64 0 1 0 193.28 0 a96.64 96.64 0 1 0 -193.28 0z" fill="rgba(121, 0, 15, 0.23)" class="triangle-float2"></path><path d="M808.657,295.358C843.272,295.824,876.201,280.561,895.083,251.546C915.912,219.538,923.341,179.445,906.339,145.251C887.45,107.263,851.08,77.307,808.657,77.728C766.799,78.143,732.417,109.432,714.277,147.157C698.361,180.257,706.443,218.291,726.172,249.27C744.305,277.743,774.903,294.903,808.657,295.358" fill="rgba(121, 0, 15, 0.23)" class="triangle-float2"></path></g><defs><mask id="SvgjsMask1080"><rect width="1440" height="560" fill="#ffffff"></rect></mask></defs></svg>