<svg width="1280" height="300" viewBox="0 0 1280 300" fill="none" xmlns="http://www.w3.org/2000/svg">
<path d="M1269.37 242.41L1264.77 209.069L1282 222.745V210.297L1238.34 175.646L1244.55 161.205L1247.17 163.287L1250.45 159.196L1234.69 146.66L1231.4 150.75L1234.2 152.98L1220.02 161.756L1198.99 200.638L1201.26 202.05L1201.46 231.081L1198.93 231.11V210.893H1174.4V223.488H1160.37V250.952C1156.23 252.18 1152.44 253.483 1148.97 254.822H1113.17V241.667C1113.17 239.453 1111.36 237.658 1109.14 237.658H1084.27L1070.51 212.622L1056.25 203.948L1059.04 201.697L1055.73 197.636L1040.05 210.283L1043.36 214.344L1045.97 212.24L1052.28 226.637L1015.83 255.984V231.301C1013.31 230.11 1010.45 229.448 1007.46 229.227L998.981 149.331H1000.51V141.598H998.16L992.738 90.5045H995.42V82.7723H960.878V90.5045H963.56L952.708 192.722V188.212H919.499L919.265 168.15V152.45H909.013V124.964L910.398 119.388V104.409L912.142 104.468L912.289 93.7562L903.342 93.4987L901.312 90.3279V83.3609L903.818 78.9835L915.344 80.9993L918.62 57.5233L737.871 20.6651L742.546 6.34113L728.214 1C713.603 6.30435 695.247 32.2081 698.764 65.4394V127.811L695.364 127.753L695.218 129.886L696.5 129.916L696.683 135.698L699.607 135.897C699.929 134.536 700.779 133.756 701.688 133.55V139.869L700.581 139.914L700.779 145.777H701.695V233.008V234.325H698.185V229.205H691.283V221.465H699.497V217.647H673.968V215.491L673.785 188.756L667.432 188.727V141.275L668.296 137.78V128.393L669.388 128.429L669.483 121.713L663.871 121.558L662.596 119.572L662.72 112.7L665.387 109.478L670.656 107.823L665.556 93.8592L550.345 127.149L548.176 117.122L539.192 119.064C534.73 123.986 532.129 134.756 534.686 146.638V186.755L532.554 186.718L532.458 188.057L533.257 188.079L533.374 191.706L535.206 191.832C535.404 190.978 535.939 190.493 536.511 190.36V194.318L535.814 194.348L535.932 198.026H536.511V205.258H523.358C521.137 205.258 519.342 207.06 519.342 209.267V226.917H511.48V226.034H510.139V226.917H509.267C507.039 226.917 505.244 228.719 505.244 230.919V231.78H504.196V233.111H505.244V242.16H504.716L504.694 239.026L499.58 239.063L499.558 236.083L496.993 236.098L496.942 228.719C498.041 227.314 498.693 225.548 498.678 223.628C498.649 219.096 494.934 215.455 490.384 215.491C489.768 215.491 489.167 215.572 488.588 215.705L438.116 175.654L444.33 161.212L446.953 163.294L450.243 159.204L434.482 146.667L431.192 150.758L433.991 152.987L419.805 161.764L398.782 200.645L401.046 202.058L401.251 231.088L398.723 231.118V210.901H374.183V223.496H360.159V250.959C356.018 252.188 352.23 253.49 348.757 254.829H312.962V241.675C312.962 239.46 311.159 237.665 308.939 237.665H284.069L270.301 212.63L256.049 203.956L258.833 201.705L255.521 197.644L239.848 210.29L243.16 214.351L245.768 212.247L252.085 226.645L209.468 260.95L197.619 149.338H200.308V141.606H165.766V149.338H168.455L152.569 299H151.236V285.162H143.315V260.17H137.181V251.077C137.181 243.073 131.224 236.466 123.486 235.385V235.09C123.486 225.32 115.499 217.367 105.68 217.367H105.087C95.2679 217.367 87.2809 225.32 87.2809 235.09V267.159H78.5904V233.067C78.5904 230.838 77.396 228.896 75.6154 227.822C77.6964 227.211 79.2206 225.298 79.2206 223.032C79.2206 220.266 76.971 218.03 74.1939 218.03H70.1564V213.373H63.906V218.03H59.8685C57.0987 218.03 54.8492 220.266 54.8492 223.032C54.8492 225.298 56.3733 227.211 58.4543 227.822C56.6737 228.896 55.4793 230.838 55.4793 233.067V267.159H47.0234V235.833C47.0234 234.2 45.6971 232.883 44.063 232.883H38.0325V200.836C38.0325 194.973 33.2329 190.198 27.3416 190.198V189.735C27.3416 181.098 20.2998 174.094 11.624 174.094C2.94819 174.094 -4.09358 181.098 -4.09358 189.735V285.162H-12V299M1207.47 240.461L1207.44 236.606L1209.1 236.591L1209.13 240.446L1207.47 240.461ZM1251.2 198.313L1254.97 201.3L1255.64 206.185L1247.76 209.363L1251.2 198.313ZM1245.91 215.278L1256.32 211.085L1258.04 223.488H1257.94L1245.84 215.528L1245.92 215.278H1245.91ZM1249.19 223.488H1243.35L1244.34 220.295L1249.19 223.488ZM1243.92 192.53L1234.25 223.488H1230.86L1241.63 190.713L1243.92 192.53ZM1231 182.282L1240.16 189.551L1229.01 223.488H1223.47V202.175H1212.95V234.627H1212.23L1212.21 231.037L1204.99 231.088L1204.8 205.052L1230.99 182.29L1231 182.282ZM1203.02 203.146L1203.22 231.059L1202.06 231.073L1201.85 202.411L1203.02 203.146ZM1198.94 236.665H1199.8L1199.83 240.512H1198.94V236.665ZM1080.07 281.851H1078.81V285.449H1069.42V265.504H1070.16V264.172H1069.42V263.319C1069.42 263.01 1069.68 262.752 1070 262.752H1070.87V263.635H1072.21V262.752H1080.07V281.844V281.851ZM1088.98 281.822H1087.81V253.902L1088.98 253.159V281.822ZM1093.21 291.246H1091.27V287.391H1093.21V291.246ZM1131.15 258.257H1140.83C1137.22 259.92 1134.01 261.597 1131.15 263.216V258.257ZM1122.24 258.257H1128.88V263.679H1122.24V258.257ZM1122.24 265.644H1127.04C1125.31 266.71 1123.72 267.733 1122.24 268.704V265.644ZM1119.99 258.257V260.339H1119.98V270.205C1117.61 271.787 1115.57 273.162 1113.75 274.222C1110.54 276.083 1108.13 278.047 1106.27 280.078V258.831C1106.27 258.522 1106.53 258.257 1106.84 258.257H1119.99ZM1109.16 241.101C1109.47 241.101 1109.74 241.366 1109.74 241.675V254.829H1106.85C1104.63 254.829 1102.83 256.631 1102.83 258.831V284.867C1101.6 287.074 1100.73 289.318 1099.94 291.562V285.456H1096.09V281.858L1089.56 281.829V252.798L1091.82 251.364L1086.18 241.101H1109.16ZM1083.53 253.674L1086.03 255.822V281.858H1083.53V253.674ZM1083.53 287.398H1083.62V291.253H1083.53V287.398ZM1059.68 233.236L1080.08 250.716V259.324H1072.22V258.441H1070.88V259.324H1070.01C1067.79 259.324 1065.98 261.119 1065.98 263.326V264.18H1064.94V265.511H1065.98V286.383L1050.58 240.564L1059.69 233.229L1059.68 233.236ZM1049.12 241.741L1065.98 291.886V293.629H1062.85L1046.84 243.573L1049.12 241.741ZM1053.15 291.805L1033.38 280.174L1046.61 271.338L1053.15 291.798V291.805ZM1035.85 252.416L1039.59 249.4L1043.11 260.42L1035.2 257.301L1035.85 252.409V252.416ZM1034.56 262.215L1045.01 266.328L1045.09 266.578L1032.92 274.7L1034.56 262.215ZM1031.62 284.705L1046.78 293.622H1030.45L1031.62 284.705ZM1015.85 268.52L1026.11 260.258L1021.74 293.629H1015.86V268.52H1015.85ZM963.567 197.504H960.973L963.882 194.495L963.56 197.504H963.567ZM967.18 163.485L965.97 162.235H967.319L967.187 163.485H967.18ZM965.098 154.502L968.638 149.72L968.132 154.502H965.098ZM968.242 208.583L968.594 205.236H972.111L969.158 209.223L968.242 208.583ZM974.382 183.651L981.226 192.906L977.826 197.504H969.414L970.455 187.704L974.382 183.643V183.651ZM971.041 182.216L971.327 179.516L972.338 180.877L971.041 182.216ZM981.71 141.606H974.639L978.171 136.824L981.71 141.606ZM969.217 119.226H987.125L978.171 131.328L969.217 119.226ZM987.426 149.338L991.243 154.502H973.972L974.522 149.338H987.426ZM990.378 162.235L982.545 170.327H973.789L972.441 168.937L973.151 162.242H990.378V162.235ZM987.55 213.328L993.346 209.297L996.328 213.328H987.55ZM995.464 221.061L991.712 224.93L986.15 221.061H995.464ZM988.693 197.511L985.293 192.913L987.733 189.617L995.376 197.511H988.701H988.693ZM983.256 190.161L976.683 181.274L978.171 179.737L985.425 187.233L983.256 190.161ZM984.626 197.511H981.886L983.256 195.657L984.626 197.511ZM987.477 184.46L981.278 178.059H992.21L987.469 184.46H987.477ZM975.064 178.059L974.632 178.501L974.302 178.059H975.057H975.064ZM971.84 211.092L976.17 205.236H990.349L991.221 206.42L981.292 213.328H975.057L971.84 211.092ZM978.75 221.061H979.893L989.199 227.542L984.956 231.927C984.377 227.527 982.633 223.569 978.742 221.068L978.75 221.061ZM989.88 232.729H988.913L992.027 229.506L994.116 230.956C992.606 231.456 991.185 232.052 989.88 232.721V232.729ZM999.67 221.612L1000.51 229.492C999.897 229.573 999.289 229.668 998.681 229.779L994.541 226.902L999.662 221.612H999.67ZM998.519 210.79L996.035 207.436L998.014 206.06L998.519 210.798V210.79ZM996.739 194.039L989.778 186.851L995.193 179.531L996.731 194.046L996.739 194.039ZM993.537 163.868L994.225 170.335H987.279L993.537 163.868ZM991.492 149.353H991.991L992.071 150.14L991.485 149.353H991.492ZM992.328 141.62H985.769L980.2 134.094L990.107 120.705L992.328 141.62ZM969.429 90.5265H986.905L989.133 111.509H967.201L969.429 90.5265ZM966.227 120.705L976.134 134.094L970.565 141.62H965.985V147.808L962.907 151.964L966.227 120.705ZM961.757 162.794L966.703 167.899L964.461 189.014L958.299 195.385L961.757 162.794ZM957.243 205.309L962.351 208.863L961.962 212.541L961.537 210.121L956.884 208.672L957.243 205.309ZM956.584 211.489L959.112 212.188L959.742 216.521C958.518 216.323 957.309 216.131 956.108 215.94L956.584 211.489ZM726.814 221.877L728.287 206.295L740.172 215.587L729.364 224.04C728.675 222.973 727.781 222.267 726.821 221.877H726.814ZM730.771 200.447L742.261 187.108L753.758 200.447H730.771ZM752.109 206.251L742.261 213.954L732.412 206.251H752.109ZM750.995 168.179H733.526L742.261 154.922L750.995 168.179ZM736.281 141.716H748.24L742.261 150.795L736.281 141.716ZM750.416 173.984L742.261 183.452L734.105 173.984H750.416ZM743.836 185.284L753.215 174.396L755.531 198.857L743.836 185.284ZM743.616 152.862L750.233 142.82L752.453 166.281L743.616 152.869V152.862ZM734.933 135.919L736.421 120.175H748.093L749.581 135.919H734.933ZM740.898 152.862L732.061 166.274L734.281 142.812L740.898 152.854V152.862ZM740.678 185.284L728.983 198.857L731.299 174.396L740.678 185.284ZM743.316 226.88H735.453V224.71L732.581 224.791L742.253 217.22L746.804 220.774C743.939 221.605 743.286 224.415 743.308 226.873L743.316 226.88ZM750.68 220.531L744.349 215.587L756.234 206.295L757.568 220.435C754.798 220.457 752.409 220.509 750.673 220.531H750.68ZM773.952 220.45C771.285 220.443 768.566 220.435 765.951 220.428L773.161 190.603L779.111 191.331L773.96 220.45H773.952ZM787.054 147.874L780.159 185.578H774.428L784.05 147.513L787.054 147.881V147.874ZM785.347 142.363L795.173 103.482L788.058 142.363H785.347ZM832.287 218.486C830.228 218.795 828.689 219.707 827.531 220.877V213.159L832.287 212.696V218.478V218.486ZM832.287 206.935L827.531 207.597V196.113C830.154 196.113 832.287 198.239 832.287 200.844V206.928V206.935ZM838.222 218.5V212.122L844.516 211.511L846.671 218.839C843.483 218.706 840.611 218.589 838.222 218.5ZM860.073 218.044C858.805 218.044 857.655 218.515 856.775 219.28C856.622 219.28 856.46 219.266 856.299 219.258L853.676 210.621L860.674 209.944C860.666 212.769 860.688 215.808 860.71 218.044H860.08H860.073ZM904.815 104.225V119.403L906.236 124.979V152.465H887.426V124.714L888.797 119.204V103.666L904.815 104.225ZM811.176 68.2939L814.246 66.0279L839.482 69.6402L839.871 67.823L888.826 76.3792V80.1091L890.995 80.9772V89.2096L889.214 93.1162L882.121 92.9175L881.748 103.423L883.257 103.475V119.204L884.657 124.714V152.465H872.947V168.164H873.013L873.138 194.178C864.271 193.715 861.487 198.342 860.879 202.933L851.719 204.213L813.506 78.7554H814.657V70.9056H811.117L810.883 70.1331L811.169 68.2939H811.176ZM842.736 205.471L838.222 206.104V200.844C838.222 194.98 833.422 190.206 827.531 190.206V189.742C827.531 181.105 820.489 174.101 811.814 174.101C803.138 174.101 796.096 181.105 796.096 189.742V220.752C795.517 220.612 794.85 220.531 794.081 220.524C792.037 220.502 786.387 220.494 779.704 220.465L806.171 81.2127L842.728 205.471H842.736ZM703.161 84.6116C703.447 85.4061 703.74 86.208 704.047 87.0099V127.914L703.161 127.9V84.6116ZM703.161 139.825V133.697C703.93 134.043 704.56 134.83 704.744 136.059L708.056 136.007L708.231 130.254L709.419 130.291V128.01L705.506 127.944V90.578C706.165 92.1009 706.869 93.6385 707.631 95.1761L713.866 95.3306L729.503 48.9231L794.447 62.5702L796.924 65.4762L795.649 70.9056H793.407V78.7554H793.802L761.21 217.698L751.992 120.153H753.787V114.348H730.712V120.153H732.508L722.879 222.024C721.362 222.797 720.227 224.408 720.205 226.733L717.479 227.63V234.568H703.234V233.589L703.153 145.829L703.908 145.843L704.099 139.789L703.153 139.825H703.161ZM700.244 127.848V74.3781C700.662 76.2762 701.146 78.189 701.71 80.1165V127.87L700.244 127.841V127.848ZM558.918 243.963C556.691 244.36 554.478 244.735 552.279 245.096V243.565H558.918V243.963ZM558.918 241.601H552.279V238.07H558.918V241.601ZM558.918 236.106H552.279V232.582H558.918V236.106ZM558.918 230.617H552.279V227.086H558.918V230.617ZM558.918 225.122H552.279V221.59H558.918V225.122ZM558.918 219.626H552.279V216.095H558.918V219.626ZM558.918 214.13H552.279V208.708H558.918V214.13ZM574.892 240.983C574.76 241.005 574.621 241.035 574.497 241.057L574.892 239.438V240.983ZM574.892 225.703L570.928 241.734C567.645 242.359 564.392 242.97 561.182 243.551V210.79H561.175V208.708H574.321C574.636 208.708 574.892 208.973 574.892 209.282V225.703ZM574.321 205.273H571.434V192.118C571.434 191.809 571.697 191.545 572.005 191.545H583.341L578.336 211.754V209.275C578.336 207.068 576.534 205.265 574.313 205.265L574.321 205.273ZM589.379 191.552L586.653 206.45L583.15 206.089L586.821 191.545H589.371L589.379 191.552ZM587.693 188.116L589.086 182.584L590.969 182.812L590.002 188.116H587.693ZM578.336 240.328V225.482L582.264 209.606L585.993 210.055L580.351 239.946C579.677 240.071 579.018 240.196 578.343 240.328H578.336ZM597.63 236.922C593.05 237.658 588.536 238.438 584.125 239.247L593.277 191.552H597.058C597.373 191.552 597.63 191.817 597.63 192.126V236.922ZM611.728 214.638H610.988V215.97H611.728V234.921C608.123 235.355 604.569 235.848 601.081 236.378V213.211H608.943V214.094H610.277V213.211H611.156C611.464 213.211 611.728 213.468 611.728 213.785V214.638ZM664.801 128.29V137.802L665.695 141.297L665.651 191.574H653.817L653.905 141.128L654.762 137.677V127.937L664.801 128.29ZM606.027 130.004L621.078 124.641L620.755 123.522L654.777 112.833V113.171L656.133 113.708V118.865L655.019 121.323L650.578 121.198L650.344 127.782L651.289 127.811V137.677L652.168 141.128L652.059 191.434H644.856L645.706 232.876C642.394 232.846 639.14 232.891 635.923 233.001L608.042 140.841H610.57V135.389H608.379L605.675 134.087L604.994 132.159L606.027 130.011V130.004ZM630.325 233.251C625.152 233.538 620.11 233.987 615.179 234.531V215.97H616.22V214.638H615.179V213.785C615.179 211.57 613.369 209.775 611.156 209.775H610.277V208.892H608.943V209.775H601.081V192.126C601.081 189.919 599.278 188.116 597.058 188.116H593.936L602.971 141.025L630.332 233.244L630.325 233.251ZM591.599 179.362L589.958 179.133L596.061 154.988L591.599 179.369V179.362ZM537.441 155.253C537.617 155.672 537.808 156.084 537.998 156.496V186.829H537.441V155.245V155.253ZM537.441 198.063H537.91L538.035 194.274L537.441 194.296V190.456C537.917 190.676 538.32 191.162 538.43 191.935L540.504 191.905L540.607 188.3L541.354 188.322V186.895L538.899 186.851V158.372C542.351 165.067 547.707 171.644 555.533 177.272L559.145 176.235L554.023 145.262L579.831 136.853L580.344 137.957L594.032 133.874L595.343 135.389H592.295V140.841H595.871L584.169 188.116H571.983C569.756 188.116 567.96 189.911 567.96 192.126V205.28H537.434V198.07L537.441 198.063ZM537.441 208.708H550.008V245.464C548.095 245.765 546.198 246.037 544.307 246.302H537.441V208.716V208.708ZM535.609 186.792V150.191C535.88 151.111 536.188 152.038 536.525 152.965V186.807L535.609 186.792ZM522.808 209.282C522.808 208.973 523.072 208.708 523.38 208.708H536.533V246.295H522.808V209.282ZM508.717 233.126H509.45V231.794H508.717V230.934C508.717 230.625 508.981 230.36 509.289 230.36H510.161V231.243H511.502V230.36H519.364V247.376C516.169 246.979 513.224 246.655 510.6 246.368L510.571 242.131L508.71 242.146V233.126H508.717ZM407.282 240.476L407.253 236.621L408.909 236.606L408.938 240.461L407.282 240.476ZM490.45 221.127C491.878 221.119 493.044 222.26 493.058 223.68C493.066 225.1 491.915 226.255 490.494 226.269C489.065 226.277 487.9 225.136 487.885 223.716C487.878 222.297 489.028 221.142 490.45 221.127ZM490.523 231.897C491.659 231.89 492.736 231.655 493.71 231.235L493.74 236.135L487.357 236.179L487.321 231.279C488.303 231.684 489.387 231.905 490.516 231.897H490.523ZM482.25 223.121C482.235 223.334 482.228 223.54 482.228 223.761C482.243 225.681 482.924 227.439 484.038 228.83L484.089 236.209L482.316 236.223L482.36 242.344L469.185 242.433L464.576 209.091L482.257 223.121H482.25ZM451.013 198.335L454.779 201.322L455.453 206.207L447.569 209.385L451.013 198.335ZM445.722 215.3L456.135 211.107L457.849 223.51H457.754L445.649 215.55L445.73 215.3H445.722ZM449.005 223.51H443.158L444.154 220.318L449.005 223.51ZM443.729 192.553L434.064 223.51H430.671L441.436 190.735L443.729 192.553ZM430.811 182.304L439.97 189.573L428.825 223.51H423.293V202.197H412.77V234.649H412.052L412.03 231.059L404.813 231.11L404.629 205.074L430.818 182.312L430.811 182.304ZM402.834 203.169L403.032 231.081L401.867 231.095L401.662 202.433L402.834 203.169ZM398.745 236.687H399.603L399.632 240.534H398.745V236.687ZM279.878 281.873H278.61V285.471H269.224V265.526H269.964V264.194H269.224V263.341C269.224 263.032 269.488 262.774 269.803 262.774H270.675V263.657H272.016V262.774H279.878V281.866V281.873ZM288.781 281.844H287.609V253.924L288.781 253.181V281.844ZM293.016 291.268H291.074V287.413H293.016V291.268ZM330.951 258.279H340.638C337.018 259.942 333.816 261.619 330.951 263.238V258.279ZM322.048 258.279H328.687V263.701H322.048V258.279ZM322.048 265.666H326.848C325.111 266.732 323.521 267.755 322.048 268.726V265.666ZM319.791 258.279V260.361H319.784V270.227C317.41 271.809 315.373 273.185 313.555 274.244C310.339 276.105 307.935 278.07 306.074 280.1V258.853C306.074 258.544 306.338 258.279 306.645 258.279H319.791ZM308.961 241.123C309.276 241.123 309.54 241.388 309.54 241.697V254.851H306.653C304.433 254.851 302.63 256.653 302.63 258.853V284.889C301.399 287.096 300.534 289.34 299.743 291.584V285.478H295.889V281.88L289.367 281.851V252.821L291.624 251.386L285.982 241.123H308.961ZM283.337 253.696L285.835 255.844V281.88H283.337V253.696ZM283.337 287.42H283.425V291.275H283.337V287.42ZM259.485 233.258L279.885 250.738V259.346H272.023V258.463H270.682V259.346H269.81C267.59 259.346 265.787 261.141 265.787 263.348V264.202H264.747V265.533H265.787V286.405L250.385 240.586L259.493 233.251L259.485 233.258ZM248.919 241.763L265.78 291.908V293.652H262.651L246.64 243.595L248.919 241.763ZM252.957 291.827L233.187 280.196L246.413 271.36L252.957 291.82V291.827ZM235.649 252.438L239.393 249.422L242.918 260.442L235.004 257.323L235.649 252.431V252.438ZM234.367 262.237L244.808 266.35L244.889 266.6L232.725 274.722L234.367 262.237ZM231.421 284.728L246.582 293.644H230.249L231.421 284.728ZM225.918 260.273L221.543 293.644H212.97L210.728 272.508L225.925 260.273H225.918ZM193.662 287.523H191.097V290.51H185.983V291.569H164.579L183.059 278.702L193.655 286.081V287.531L193.662 287.523ZM196.139 213.343H169.987L183.059 195.672L196.139 213.343ZM174.112 178.074H192.021L183.066 190.176L174.112 178.074ZM195.274 221.075L183.066 233.692L170.859 221.075H195.282H195.274ZM200.264 256.344H165.861L183.066 238.577L200.272 256.344H200.264ZM197.81 264.077L183.066 274.34L168.323 264.077H197.81ZM200.125 272.493C201.554 272.493 202.712 273.648 202.712 275.068C202.712 276.488 201.554 277.635 200.125 277.635C198.696 277.635 197.546 276.488 197.546 275.068C197.546 273.648 198.703 272.493 200.125 272.493ZM193.662 281.711L186.195 276.517L192.416 272.184C192.079 273.082 191.882 274.053 191.882 275.068C191.882 276.988 192.548 278.746 193.655 280.144V281.711H193.662ZM203.313 287.523H202.001L196.93 283.992V282.623C197.912 283.035 198.989 283.264 200.118 283.264C201.246 283.264 202.323 283.035 203.305 282.623V287.523H203.313ZM204.111 265.305L201.92 267.071C201.341 266.946 200.741 266.872 200.125 266.872C200.103 266.872 200.074 266.872 200.052 266.872L203.987 264.128L204.111 265.298V265.305ZM202.931 254.218L185.426 236.135L199.473 221.627L202.931 254.218ZM198.322 210.798L185.096 192.92L195.003 179.531L198.322 210.79V210.798ZM174.325 149.36H191.801L194.029 170.342H172.097L174.325 149.36ZM171.123 179.538L181.029 192.928L167.811 210.805L171.13 179.545L171.123 179.538ZM166.653 221.627L180.692 236.135L163.187 254.218L166.645 221.627H166.653ZM162.139 264.135L179.93 276.517L159.296 290.878L162.132 264.135H162.139ZM93.2455 235.112C93.2455 228.601 98.5653 223.297 105.116 223.297H105.71C112.253 223.297 117.58 228.594 117.58 235.112V235.679C110.575 237.342 105.365 243.61 105.365 251.092V260.185H99.2321V267.174H93.2528V235.105L93.2455 235.112ZM93.2455 273.082H99.2248V285.184H93.2455V273.082ZM78.6197 273.082H87.3102V285.184H78.6197V273.082ZM38.0398 238.806H41.11V270.131C41.11 271.765 42.4363 273.082 44.0777 273.082H55.5013V285.184H38.0398V238.813V238.806ZM27.3489 196.121C29.9722 196.121 32.1045 198.247 32.1045 200.851V232.898H27.3489V196.113V196.121ZM27.3489 238.806H32.1045V285.176H27.3489V238.806Z" stroke="#C3C3BF" stroke-miterlimit="10"/>
</svg>
