<svg width="646" height="277" viewBox="0 0 646 277" fill="none" xmlns="http://www.w3.org/2000/svg">
<mask id="mask0_47_163" style="mask-type:alpha" maskUnits="userSpaceOnUse" x="0" y="0" width="646" height="277">
<path d="M115.5 78.5C123.5 57.3 133.167 43 137 38.5C148.333 21.6667 181.6 -9 224 3C277 18 292.5 31 362 19.5C431.5 8.00002 465.5 18 512 31C558.5 44 548.5 78.5 568.5 95C588.5 111.5 602.5 101 637 175C664.6 234.2 618.5 264.667 592 272.5C444.167 275.333 129 279.3 51 272.5C-46.5 264 20.5 131 60.5 116C100.5 101 105.5 105 115.5 78.5Z" fill="#D9D9D9"/>
</mask>
<g mask="url(#mask0_47_163)">
<path d="M142 57.5C127.2 48.7 94.1667 61.1666 79.5 68.5L-4.5 135L301.5 243L643.5 163.5V112C658.5 104.667 660.4 87.4 548 77C407.5 64 383.5 165.5 356 175.5C328.5 185.5 306 143 286.5 126C267 109 260.5 85 226 85C191.5 85 160.5 68.5 142 57.5Z" fill="#79000F" fill-opacity="0.03"/>
<path d="M116 138C73.2 126.4 10.8333 133.167 -15 138V230.5C142.167 232.667 451.6 236.7 432 235.5C407.5 234 357 216.5 333 200C309 183.5 281 193.5 234.5 158C188 122.5 169.5 152.5 116 138Z" fill="#C0C0C0" fill-opacity="0.72"/>
<path d="M489 70C487 76.5 484 78.5 481.5 80C472 81.1667 452.4 83.4 450 83C447 82.5 448 72.5 443.5 67C439 61.5 443.5 62 443.5 55.5C443.5 49 436 51.5 436 44.5C436 37.5 439 35.5 436 31.5C433 27.5 432.5 23 443.5 12.5C454.5 2.00001 451.5 10.5 469.5 9.5C487.5 8.5 491.5 16.5 497 23C502.5 29.5 493.5 38 497 44.5C500.5 51 491 63.5 489 70Z" fill="#FBFBFB"/>
<path d="M402.5 51C402.5 58 399 65.5 393.5 66.5C395.5 79 392 80.5 390.5 79.5C389 78.5 388 76 385 75C382 74 382.5 66.5 375.5 65C368.5 63.5 369 63.5 367.5 59C366 54.5 369 55 367.5 52C366 49 361 49.5 359.5 46C358 42.5 361 43 359.5 40C358 37 355.5 38 354 33.5C352.5 29 357 29.5 359.5 26.5C362 23.5 357 23 355.5 19C354 15 366.5 12 380 7C393.5 2 397 8.5 402.5 15.5C408 22.5 402.5 20 409 25C415.5 30 414.5 27.5 413 39C411.5 50.5 402.5 44 402.5 51Z" fill="#F0F0F0"/>
<path d="M384.178 191.823L386.826 77.3534L395.824 77.5616L398.174 192.147L384.178 191.823Z" fill="#79000F" fill-opacity="0.61"/>
<path d="M382.799 90.766C382.799 97.766 379.299 105.266 373.799 106.266C375.799 118.766 372.299 120.266 370.799 119.266C369.299 118.266 368.299 115.766 365.299 114.766C362.299 113.766 362.799 106.266 355.799 104.766C348.799 103.266 349.299 103.266 347.799 98.766C346.299 94.266 349.299 94.766 347.799 91.766C346.299 88.766 341.299 89.266 339.799 85.766C338.299 82.266 341.299 82.766 339.799 79.766C338.299 76.766 335.799 77.766 334.299 73.266C332.799 68.766 337.299 69.266 339.799 66.266C342.299 63.266 337.299 62.766 335.799 58.766C334.299 54.766 346.799 51.766 360.299 46.766C373.799 41.766 377.299 48.266 382.799 55.266C388.299 62.266 382.799 59.766 389.299 64.766C395.799 69.766 394.799 67.266 393.299 78.766C391.799 90.266 382.799 83.766 382.799 90.766Z" fill="#F0F0F0" fill-opacity="0.48"/>
<path d="M364.477 231.589L367.125 117.119L376.123 117.328L378.473 231.913L364.477 231.589Z" fill="#79000F" fill-opacity="0.61"/>
<path d="M435.402 110.172C433.137 130.282 420.067 183.307 413.815 207.306C449.645 206.323 519.008 203.351 509.823 199.33C500.638 195.31 492.753 114.213 489.959 74.1669L437.973 75.5936C438.06 78.7407 437.666 90.0626 435.402 110.172Z" fill="#79000F" fill-opacity="0.41"/>
<path d="M595 126C656.2 122.8 668.833 151.667 667.5 166.5C671.5 184.333 678.1 222.3 672.5 231.5C665.5 243 574 247.5 563.5 247.5C553 247.5 295 229 320.5 220C346 211 368 204 412.5 166.5C457 129 518.5 130 595 126Z" fill="#C0C0C0"/>
<path d="M228.5 156.5L145.5 148.5V224L230.5 227.5L228.5 156.5Z" fill="#1C1C1C"/>
<path d="M168.5 171C172.1 158.6 198.667 158.167 211.5 159.5L229 161.5L232.5 216C230 218.167 224.1 222.5 220.5 222.5C216 222.5 170.5 219.5 168.5 216C166.5 212.5 168.5 206 163.5 196C158.5 186 164 186.5 168.5 171Z" fill="black"/>
<rect x="135.344" y="138" width="104" height="12" transform="rotate(6.42934 135.344 138)" fill="#54010B"/>
<rect x="150" y="148" width="80" height="12" transform="rotate(90 150 148)" fill="#79000F"/>
<rect x="236.996" y="152" width="80" height="12" transform="rotate(88.5842 236.996 152)" fill="#630510"/>
<path d="M412 232C404.4 230 402.167 238.5 402 243C400.833 244.333 400.3 247 407.5 247C416.5 247 436.5 247.5 438.5 247C440.5 246.5 440.5 245 441 243C441.5 241 439.5 240 435 237C430.5 234 421.5 234.5 412 232Z" fill="#3A3A3A"/>
<path d="M16.5 190.5C-3.1 190.5 -7 205.167 -6.5 212.5C-18 221 5.5 236.5 24 236.5C42.5 236.5 131 239 141.5 236.5C152 234 147 227 141.5 216.5C136 206 106 208.5 96 201.5C86 194.5 70.5 156 55 161.5C39.5 167 41 190.5 16.5 190.5Z" fill="#3A3A3A"/>
<path d="M115.5 78.5C123.5 57.3 133.167 43 137 38.5C148.333 21.6667 181.6 -9 224 3C277 18 292.5 31 362 19.5C431.5 8.00002 465.5 18 512 31C558.5 44 548.5 78.5 568.5 95C588.5 111.5 602.5 101 637 175C664.6 234.2 618.5 264.667 592 272.5C444.167 275.333 129 279.3 51 272.5C-46.5 264 20.5 131 60.5 116C100.5 101 105.5 105 115.5 78.5Z" fill="#D6D6D6" fill-opacity="0.13"/>
<path d="M100 219.5C75.6 213.9 5.83333 217.167 -26 219.5L-0.5 277L600.5 282C628.5 261.167 680 219.5 662 219.5H501C422.5 219.5 335.5 224.5 283 219.5C230.5 214.5 130.5 226.5 100 219.5Z" fill="#444444"/>
<path d="M508.5 241C491.7 239.4 483.833 252.333 482 259C482 261.5 481.9 266.9 481.5 268.5C481 270.5 497.5 271 531.5 270C565.5 269 562.5 269.5 574.5 266.5C586.5 263.5 580 259 574.5 247.5C569 236 562.5 241 547 236.5C531.5 232 529.5 243 508.5 241Z" fill="#202020"/>
<path d="M26.4346 211.228C14.4346 210.428 1.76793 218.562 -3.06541 222.728C-15.0654 230.312 12.9346 234.728 23.4346 234.228C33.9346 233.728 44.4346 232.728 70.9346 233.228C97.4346 233.728 90.9346 231.728 103.935 227.728C116.935 223.728 100.935 220.228 87.9346 213.228C74.9346 206.228 72.4346 211.228 55.4346 204.728C38.4346 198.228 41.4346 212.228 26.4346 211.228Z" fill="#202020"/>
<path d="M48.1141 230.108C32.9141 224.908 26.4474 239.274 25.1141 247.108C22.1141 255.826 79.1141 255.608 98.1141 252.108C117.114 248.608 94.6141 238.608 85.1141 234.108C75.6141 229.608 67.1141 236.608 48.1141 230.108Z" fill="#404040"/>
<path d="M415.5 213.5C401.9 206.7 389.833 229.667 385.5 242C379 251 450.5 247 450.5 245C450.5 243 432.5 222 415.5 213.5Z" fill="#202020"/>
</g>
</svg>
